HIERARCHY
ROOT hip
{
	OFFSET 0.000000 0.000000 0.000000
	CHANNELS 6 Xposition Yposition Zposition Zrotation Yrotation Xrotation 
	JOINT lhipjoint
	{
		OFFSET 0.000000 0.000000 0.000000
		CHANNELS 3 Zrotation Yrotation Xrotation
		JOINT lfemur
		{
			OFFSET 1.363060 -1.794630 0.839290
			CHANNELS 3 Zrotation Yrotation Xrotation
			JOINT ltibia
			{
				OFFSET 2.448110 -6.726130 0.000000
				CHANNELS 3 Zrotation Yrotation Xrotation
				JOINT lfoot
				{
					OFFSET 2.562200 -7.039590 0.000000
					CHANNELS 3 Zrotation Yrotation Xrotation
					JOINT ltoes
					{
						OFFSET 0.157640 -0.433110 2.322550
						CHANNELS 3 Zrotation Yrotation Xrotation
						End Site
						{
							OFFSET 0.000000 0.000000 0.000000
						}
					}
				}
			}
		}
	}
	JOINT rhipjoint
	{
		OFFSET 0.000000 0.000000 0.000000
		CHANNELS 3 Zrotation Yrotation Xrotation
		JOINT rfemur
		{
			OFFSET -1.305520 -1.794630 0.839290
			CHANNELS 3 Zrotation Yrotation Xrotation
			JOINT rtibia
			{
				OFFSET -2.542530 -6.985550 0.000000
				CHANNELS 3 Zrotation Yrotation Xrotation
				JOINT rfoot
				{
					OFFSET -2.568260 -7.056230 0.000000
					CHANNELS 3 Zrotation Yrotation Xrotation
					JOINT rtoes
					{
						OFFSET -0.164730 -0.452590 2.363150
						CHANNELS 3 Zrotation Yrotation Xrotation
						End Site
						{
							OFFSET 0.000000 0.000000 0.000000
						}
					}
				}
			}
		}
	}
	JOINT lowerback
	{
		OFFSET 0.000000 0.000000 0.000000
		CHANNELS 3 Zrotation Yrotation Xrotation
		JOINT upperback
		{
			OFFSET 0.028270 2.035590 -0.193380
			CHANNELS 3 Zrotation Yrotation Xrotation
			JOINT thorax
			{
				OFFSET 0.056720 2.048850 -0.042750
				CHANNELS 3 Zrotation Yrotation Xrotation
				JOINT lowerneck
				{
					OFFSET 0.000000 0.000000 0.000000
					CHANNELS 3 Zrotation Yrotation Xrotation
					JOINT upperneck
					{
						OFFSET -0.054170 1.746240 0.172020
						CHANNELS 3 Zrotation Yrotation Xrotation
						JOINT head
						{
							OFFSET 0.104070 1.761360 -0.123970
							CHANNELS 3 Zrotation Yrotation Xrotation
							End Site
							{
								OFFSET 0.000000 0.000000 0.000000
							}
						}
					}
				}
				JOINT lclavicle
				{
					OFFSET 0.000000 0.000000 0.000000
					CHANNELS 3 Zrotation Yrotation Xrotation
					JOINT lhumerus
					{
						OFFSET 3.362410 1.200890 -0.311210
						CHANNELS 3 Zrotation Yrotation Xrotation
						JOINT lradius
						{
							OFFSET 4.983000 -0.000000 -0.000000
							CHANNELS 3 Zrotation Yrotation Xrotation
							JOINT lwrist
							{
								OFFSET 3.483560 -0.000000 -0.000000
								CHANNELS 3 Zrotation Yrotation Xrotation
								JOINT lhand
								{
									OFFSET 0.000000 0.000000 0.000000
									CHANNELS 3 Zrotation Yrotation Xrotation
									JOINT lfingers
									{
										OFFSET 0.715260 -0.000000 -0.000000
										CHANNELS 3 Zrotation Yrotation Xrotation
										End Site
										{
											OFFSET 0.000000 0.000000 0.000000
										}
									}
								}
								JOINT lthumb
								{
									OFFSET 0.000000 0.000000 0.000000
									CHANNELS 3 Zrotation Yrotation Xrotation
									End Site
									{
										OFFSET 0.000000 0.000000 0.000000
									}
								}
							}
						}
					}
				}
				JOINT rclavicle
				{
					OFFSET 0.000000 0.000000 0.000000
					CHANNELS 3 Zrotation Yrotation Xrotation
					JOINT rhumerus
					{
						OFFSET -3.136600 1.374050 -0.404650
						CHANNELS 3 Zrotation Yrotation Xrotation
						JOINT rradius
						{
							OFFSET -5.241900 -0.000000 -0.000000
							CHANNELS 3 Zrotation Yrotation Xrotation
							JOINT rwrist
							{
								OFFSET -3.444170 -0.000000 -0.000000
								CHANNELS 3 Zrotation Yrotation Xrotation
								JOINT rhand
								{
									OFFSET 0.000000 0.000000 0.000000
									CHANNELS 3 Zrotation Yrotation Xrotation
									JOINT rfingers
									{
										OFFSET -0.622530 -0.000000 -0.000000
										CHANNELS 3 Zrotation Yrotation Xrotation
										End Site
										{
											OFFSET 0.000000 0.000000 0.000000
										}
									}
								}
								JOINT rthumb
								{
									OFFSET 0.000000 0.000000 0.000000
									CHANNELS 3 Zrotation Yrotation Xrotation
									End Site
									{
										OFFSET 0.000000 0.000000 0.000000
									}
								}
							}
						}
					}
				}
			}
		}
	}
}
MOTION
Frames: 7
Frame Time: 0.008333
27.527904 8.317152 0.798589 158.335376 71.264252 155.314320 -12.120329 -4.482627 -1.837845 9.979702 34.549409 -79.765374 36.432335 9.000325 149.385512 -4.425661 -46.190027 -5.447033 0.586500 -4.903400 -13.633300 17.226409 4.383700 -0.765089 -40.152872 -57.032184 -83.693886 -34.853973 -7.632147 147.493440 12.340052 60.617812 1.864413 -1.845400 8.536400 -24.355500 10.796712 -7.269343 50.748286 2.139155 2.220704 0.472779 -2.596736 3.062857 6.408964 2.261415 -6.376339 -17.758358 -3.564366 -7.143096 13.680259 -4.465200 -3.436300 4.709400 -5.589788 -2.813302 4.226690 -70.034055 -24.234430 55.679017 25.027248 -35.780769 -7.514137 0.608870 1.870007 14.477551 26.578658 -12.071438 -7.008400 -7.125000 0.000000 0.000000 -0.674200 14.103100 0.489600 10.605825 4.118845 0.991590 32.783663 39.397257 43.426978 -20.279101 35.734529 -5.053410 -1.032218 -0.862605 7.253331 -37.459819 22.290204 -16.701500 7.125000 0.000000 0.000000 -4.384700 -1.197700 -4.304800 
27.524590 8.443278 0.787302 158.048883 71.435674 155.589177 -11.910169 -4.278648 -1.895749 8.597051 30.398368 -79.602931 36.339761 9.273924 148.440442 -3.745132 -44.360240 -5.534452 0.602400 -4.968100 -13.817700 17.110055 4.153153 -0.549770 -38.253315 -53.240335 -84.277091 -34.756199 -8.025842 146.709801 10.660619 58.743638 2.462453 -1.820400 8.481400 -24.186200 10.669691 -7.019448 49.430111 2.236081 2.250854 0.730526 -2.488877 3.042618 6.580599 2.257241 -6.397844 -18.061528 -3.764754 -7.093622 13.907574 -4.524700 -3.422400 4.848100 -5.648339 -2.785305 4.243997 -69.714853 -23.988823 55.568526 25.067948 -35.836698 -7.539382 0.594189 1.861805 14.373366 26.547029 -11.954397 -6.938500 -7.125000 0.000000 0.000000 -0.679100 14.251500 0.491000 10.696602 4.154650 1.064276 32.623013 38.972093 43.441567 -20.474664 35.896176 -5.101291 -0.995137 -0.900197 5.377009 -36.645655 22.156072 -16.144800 7.125000 0.000000 0.000000 -3.935700 -1.612600 -3.832500 
27.521186 8.569852 0.776463 157.836789 71.595964 155.877576 -11.669655 -4.051086 -1.913839 7.280916 26.420254 -79.391464 36.224686 9.523911 147.456836 -3.167276 -42.584678 -5.583496 0.609500 -4.997000 -13.900100 16.987058 3.859326 -0.263266 -36.561899 -49.468776 -84.724670 -34.650316 -8.406648 145.923820 9.053144 56.838806 2.803068 -1.787100 8.407700 -23.959600 10.667041 -6.875589 48.860058 2.236999 2.282753 0.668275 -2.482831 3.024611 6.475860 2.217155 -6.394865 -18.348510 -3.859267 -7.045394 14.039777 -4.562300 -3.406500 4.978600 -5.669189 -2.808883 4.204116 -69.404990 -23.799521 55.428173 25.122608 -35.881425 -7.565681 0.582185 1.856326 14.277954 26.453147 -11.807728 -6.836900 -7.125000 0.000000 0.000000 -0.725500 14.437800 0.521700 10.701053 4.216641 1.083476 32.434171 38.522039 43.430716 -20.775762 36.099572 -5.192371 -0.966347 -0.955887 3.364713 -35.802232 21.942953 -15.546100 7.125000 0.000000 0.000000 -3.469500 -2.090600 -3.346800 
27.519573 8.699024 0.765356 157.620207 71.780651 156.143742 -11.402284 -3.830619 -1.960069 6.063139 22.785908 -79.040406 36.085907 9.768567 146.432319 -2.665516 -40.927819 -5.745407 0.613200 -5.012000 -13.942800 16.839807 3.545210 0.030944 -35.050714 -45.647471 -85.017542 -34.529801 -8.775541 145.107208 7.554397 54.924389 2.925199 -1.756700 8.339700 -23.750800 10.608544 -6.711864 48.301292 2.247677 2.329824 0.605556 -2.395249 2.997666 6.365749 2.094987 -6.394954 -18.648231 -3.919545 -6.989177 14.189711 -4.572200 -3.387000 5.124600 -5.685228 -2.832445 4.163744 -69.151287 -23.598813 55.270909 25.165936 -35.917656 -7.587947 0.564127 1.855562 14.121246 26.396135 -11.587877 -6.715200 -7.125000 0.000000 0.000000 -0.738000 14.695200 0.526700 10.702480 4.270123 1.107832 32.296268 38.101093 43.402705 -21.007792 36.230451 -5.256688 -0.935110 -1.008100 1.591200 -34.930302 21.596135 -14.869600 7.125000 0.000000 0.000000 -3.008400 -2.718500 -2.866400 
27.518140 8.829181 0.754069 157.272498 71.968600 156.294648 -11.121846 -3.620539 -2.025665 4.845312 19.428364 -78.649326 35.927822 10.006305 145.379179 -2.208859 -39.294218 -5.974045 0.609300 -4.996000 -13.897200 16.660613 3.225879 0.316188 -33.720299 -41.952601 -85.220607 -34.398109 -9.118427 144.274428 6.138955 53.055364 2.572990 -1.774300 8.379100 -23.871700 10.495508 -6.516616 47.702849 2.259545 2.387178 0.552668 -2.272150 2.969468 6.301988 1.937589 -6.411595 -18.994522 -3.965681 -6.945704 14.357471 -4.571200 -3.374800 5.285500 -5.706148 -2.851235 4.123872 -68.874955 -23.373316 55.118642 25.245344 -35.991803 -7.627514 0.547014 1.852897 13.972549 26.315680 -11.384658 -6.593600 -7.125000 0.000000 0.000000 -0.768900 14.939400 0.544800 10.704657 4.315724 1.133054 32.162066 37.710758 43.285323 -21.187847 36.322383 -5.302809 -0.899324 -1.055769 -0.075382 -34.000814 21.172459 -14.137300 7.125000 0.000000 0.000000 -2.522700 -3.440700 -2.369100 
27.517692 8.961040 0.743051 157.019880 72.159690 156.507377 -10.839097 -3.426154 -2.105701 3.766867 16.399703 -78.148564 35.745652 10.241452 144.295086 -1.847048 -37.857386 -6.189480 0.606400 -4.984400 -13.864200 16.455972 2.904817 0.593302 -32.485847 -38.359952 -85.281453 -34.252050 -9.443048 143.404683 4.910348 51.217035 2.238390 -1.772800 8.375900 -23.861900 10.422243 -6.339352 47.110467 2.263322 2.421304 0.494281 -2.207160 2.942711 6.231865 1.804800 -6.417914 -19.272260 -3.978764 -6.907192 14.490362 -4.558900 -3.362400 5.416900 -5.730323 -2.866089 4.080064 -68.529446 -23.113389 54.981332 25.327509 -36.066601 -7.668501 0.526655 1.848202 13.802599 26.241407 -11.157102 -6.461800 -7.125000 0.000000 0.000000 -0.792700 15.212700 0.557000 10.699109 4.352984 1.176562 32.142138 37.334839 43.102257 -21.301016 36.357850 -5.331156 -0.871528 -1.098021 -1.523832 -33.036661 20.843226 -13.459300 7.125000 0.000000 0.000000 -1.988500 -4.051800 -1.844200 
27.517692 9.092810 0.731585 156.751644 72.378698 156.681777 -10.561632 -3.248918 -2.196622 2.761097 13.758104 -77.593612 35.548806 10.477226 143.204098 -1.509480 -36.518352 -6.592482 0.621600 -5.045600 -14.038600 16.221519 2.585466 0.860239 -31.347827 -34.841415 -85.268694 -34.096141 -9.741863 142.514620 3.816191 49.429476 1.741236 -1.783300 8.399300 -23.933500 10.336092 -6.152604 46.515062 2.266783 2.461745 0.444134 -2.128825 2.921330 6.193651 1.627327 -6.422480 -19.551148 -3.956082 -6.862199 14.638097 -4.522100 -3.345700 5.554600 -5.759890 -2.876641 4.038281 -68.162971 -22.842399 54.826990 25.426119 -36.159186 -7.718234 0.506583 1.841636 13.682893 26.153096 -10.914929 -6.319000 -7.125000 0.000000 0.000000 -0.824700 15.505800 0.574300 10.692265 4.383656 1.224456 32.141063 36.966639 42.862046 -21.389039 36.383466 -5.354973 -0.844703 -1.134341 -2.920665 -32.109019 20.583789 -12.854200 7.125000 0.000000 0.000000 -1.459100 -4.567500 -1.338700 
